<svg width="820" height="330" viewBox="0 0 820 330" fill="none" xmlns="http://www.w3.org/2000/svg">
<rect y="2.03076" width="203.222" height="327.969" fill="#5E6E7C"/>
<rect x="616.041" y="2.08203" width="203.959" height="327.918" fill="#5E6E7C"/>
<rect x="201.19" y="33.5078" width="420.669" height="296.492" fill="#5E6E7C"/>
<rect x="211.244" y="33.3125" width="412.081" height="10.4101" fill="#68737C"/>
<rect y="28.1074" width="13.5279" height="280.032" fill="#68737C"/>
<rect x="806.472" y="20.8203" width="13.5279" height="287.319" fill="#68737C"/>
<rect x="137.36" y="317.508" width="539.036" height="12.4921" fill="#68737C"/>
<rect y="53.0913" width="13.5279" height="26.0252" fill="#313B44"/>
<rect y="2.08203" width="13.5279" height="26.0252" fill="#313B44"/>
<rect x="120.711" y="12.4922" width="9.36546" height="136.372" fill="#313B44"/>
<rect x="194.594" y="12.4922" width="9.36548" height="148.864" fill="#313B44"/>
<rect x="13.5279" y="2.08203" width="130.076" height="10.4101" fill="#313B44"/>
<rect x="177.944" y="2.08203" width="26.0152" height="10.4101" fill="#313B44"/>
<rect x="203.959" y="33.3125" width="7.28427" height="10.4101" fill="#313B44"/>
<rect x="232.056" y="33.3125" width="21.8528" height="10.4101" fill="#313B44"/>
<rect x="282.005" y="33.3125" width="21.8528" height="10.4101" fill="#313B44"/>
<rect x="329.873" y="33.3125" width="21.8528" height="10.4101" fill="#313B44"/>
<rect x="377.741" y="33.3125" width="21.8528" height="10.4101" fill="#313B44"/>
<rect x="425.609" y="33.3125" width="21.8528" height="10.4101" fill="#313B44"/>
<rect x="473.477" y="33.3125" width="21.8528" height="10.4101" fill="#313B44"/>
<rect x="521.345" y="33.3125" width="21.8528" height="10.4101" fill="#313B44"/>
<rect x="561.929" y="33.3125" width="29.1371" height="10.4101" fill="#313B44"/>
<rect x="608.756" y="33.3125" width="14.5684" height="10.4101" fill="#313B44"/>
<rect x="622.284" y="2.08203" width="15.6091" height="7.28707" fill="#313B44"/>
<rect x="670.152" width="149.848" height="7.28707" fill="#313B44"/>
<rect x="806.472" y="45.8042" width="13.5279" height="26.0252" fill="#313B44"/>
<rect x="806.472" y="7.28711" width="13.5279" height="13.5331" fill="#313B44"/>
<rect y="103.06" width="13.5279" height="26.0252" fill="#313B44"/>
<rect x="806.472" y="95.7729" width="13.5279" height="26.0252" fill="#313B44"/>
<rect y="153.028" width="13.5279" height="26.0253" fill="#313B44"/>
<rect x="120.711" y="171.767" width="9.36546" height="11.4511" fill="#313B44"/>
<rect x="13.5279" y="166.562" width="116.548" height="5.20505" fill="#313B44"/>
<rect x="130.076" y="139.495" width="20.8122" height="5.20505" fill="#313B44"/>
<rect x="177.944" y="139.495" width="16.6497" height="5.20505" fill="#313B44"/>
<rect x="238.299" y="154.069" width="7.28426" height="5.20505" fill="#313B44"/>
<rect x="340.279" y="153.028" width="6.24362" height="5.20505" fill="#313B44"/>
<rect x="352.766" y="151.987" width="11.4467" height="5.20503" fill="#313B44"/>
<rect x="223.731" y="127.003" width="5.20302" height="5.20505" fill="#313B44"/>
<rect x="203.959" y="118.675" width="4.16243" height="2.08202" fill="#313B44"/>
<rect x="208.122" y="118.675" width="12.4873" height="2.08202" fill="#313B44"/>
<rect x="269.518" y="158.233" width="77.0051" height="2.08202" fill="#313B44"/>
<rect x="220.609" y="117.634" width="3.12184" height="36.4353" fill="#313B44"/>
<rect x="203.959" y="154.069" width="21.8528" height="5.20505" fill="#313B44"/>
<rect x="806.472" y="145.741" width="13.5279" height="28.1072" fill="#313B44"/>
<rect y="202.997" width="13.5279" height="26.0252" fill="#313B44"/>
<rect x="806.472" y="195.71" width="13.5279" height="26.0252" fill="#313B44"/>
<rect y="252.965" width="13.5279" height="26.0252" fill="#313B44"/>
<rect x="806.472" y="245.678" width="13.5279" height="26.0252" fill="#313B44"/>
<rect y="308.139" width="13.5279" height="21.8612" fill="#313B44"/>
<rect width="13.5279" height="21.8612" transform="matrix(-1 0 0 1 820 308.139)" fill="#313B44"/>
<rect x="13.5279" y="317.508" width="123.832" height="12.4921" fill="#313B44"/>
<rect x="164.416" y="317.508" width="24.9746" height="12.4921" fill="#313B44"/>
<rect x="218.528" y="317.508" width="24.9746" height="12.4921" fill="#313B44"/>
<rect x="272.64" y="317.508" width="24.9746" height="12.4921" fill="#313B44"/>
<rect x="320.508" y="317.508" width="24.9746" height="12.4921" fill="#313B44"/>
<rect x="372.538" y="317.508" width="24.9747" height="12.4921" fill="#313B44"/>
<rect x="422.487" y="317.508" width="24.9747" height="12.4921" fill="#313B44"/>
<rect x="476.599" y="317.508" width="24.9746" height="12.4921" fill="#313B44"/>
<rect x="526.548" y="317.508" width="24.9746" height="12.4921" fill="#313B44"/>
<rect x="576.497" y="317.508" width="24.9747" height="12.4921" fill="#313B44"/>
<rect x="626.447" y="317.508" width="24.9746" height="12.4921" fill="#313B44"/>
<rect width="132.157" height="12.4921" transform="matrix(-1 0 0 1 808.553 317.508)" fill="#313B44"/>
<rect width="132.157" height="12.4921" transform="matrix(1 0 0 -1 565.051 212.366)" fill="#313B44"/>
<rect width="117.589" height="12.4921" transform="matrix(1 0 0 -1 421.447 212.366)" fill="#313B44"/>
<rect width="8.32489" height="8.32806" transform="matrix(1 0 0 -1 572.335 158.233)" fill="#313B44"/>
<rect width="19.7716" height="5.20505" transform="matrix(1 0 0 -1 622.284 141.577)" fill="#313B44"/>
<rect width="8.32489" height="17.6972" transform="matrix(1 0 0 -1 685.761 178.013)" fill="#313B44"/>
<rect width="114.467" height="6.24606" transform="matrix(1 0 0 -1 694.086 170.726)" fill="#313B44"/>
<rect width="14.5685" height="5.20505" transform="matrix(1 0 0 -1 672.234 141.577)" fill="#313B44"/>
<rect x="616.041" y="158.233" width="20.8122" height="8.32806" transform="rotate(-180 616.041 158.233)" fill="#313B44"/>
<rect x="622.284" y="158.233" width="6.24359" height="114.511" transform="rotate(-180 622.284 158.233)" fill="#313B44"/>
<rect x="693.046" y="142.618" width="6.24359" height="135.331" transform="rotate(-180 693.046 142.618)" fill="#313B44"/>
<rect x="622.284" y="33.3125" width="6.24359" height="31.2303" transform="rotate(-180 622.284 33.3125)" fill="#313B44"/>
<rect x="572.335" y="158.233" width="6.24371" height="114.511" transform="rotate(-180 572.335 158.233)" fill="#313B44"/>
<rect x="299.695" y="158.233" width="6.24368" height="114.511" transform="rotate(-180 299.695 158.233)" fill="#313B44"/>
<rect x="346.523" y="132.208" width="6.24362" height="88.4858" transform="rotate(-180 346.523 132.208)" fill="#313B44"/>
<rect x="251.827" y="159.274" width="6.24367" height="116.593" transform="rotate(-180 251.827 159.274)" fill="#313B44"/>
<rect width="110.305" height="12.4921" transform="matrix(1 0 0 -1 286.167 212.366)" fill="#313B44"/>
<rect width="83.2487" height="12.4921" transform="matrix(1 0 0 -1 174.822 212.366)" fill="#313B44"/>
<rect width="41.6244" height="12.4921" transform="matrix(1 0 0 -1 112.386 212.366)" fill="#313B44"/>
<rect width="9.36554" height="105.142" transform="matrix(1 0 0 -1 687.843 317.508)" fill="#313B44"/>
<rect width="9.36548" height="105.142" transform="matrix(1 0 0 -1 529.67 317.508)" fill="#313B44"/>
<rect width="9.36551" height="105.142" transform="matrix(1 0 0 -1 372.538 317.508)" fill="#313B44"/>
<rect width="9.36545" height="105.142" transform="matrix(1 0 0 -1 223.731 317.508)" fill="#313B44"/>
<rect width="9.36546" height="105.142" transform="matrix(1 0 0 -1 120.711 317.508)" fill="#313B44"/>
</svg>
