<svg width="10" height="20" viewBox="0 0 10 20" fill="none" xmlns="http://www.w3.org/2000/svg">
<path d="M7.26797 2.4187C7.26797 3.75451 6.18508 4.8374 4.84927 4.8374C3.51346 4.8374 2.43057 3.75451 2.43057 2.4187C2.43057 1.08289 3.51346 0 4.84927 0C6.18508 0 7.26797 1.08289 7.26797 2.4187Z" fill="#30C951" fill-opacity="0.8"/>
<path d="M3.37368 20C2.8214 20 2.37368 19.5523 2.37368 19V10.0204L1.78011 11.8689C1.63977 12.306 1.17169 12.5465 0.734632 12.4062C0.29757 12.2659 0.0570289 11.7978 0.197368 11.3607L1.89753 6.06588C2.09594 5.78971 2.71258 5.2495 3.5918 5.29808L6.4082 5.29808C7.28742 5.2495 7.90405 5.78971 8.10247 6.06588L9.80262 11.3607C9.94296 11.7978 9.70242 12.2659 9.26536 12.4062C8.8283 12.5465 8.36022 12.306 8.21988 11.8689L7.6354 10.0487V19C7.6354 19.5523 7.18768 20 6.6354 20C6.08312 20 5.6354 19.5523 5.6354 19V13H4.37368V19C4.37368 19.5523 3.92597 20 3.37368 20Z" fill="#30C951" fill-opacity="0.8"/>
</svg>
