<svg width="30" height="62" viewBox="0 0 30 62" fill="none" xmlns="http://www.w3.org/2000/svg">
<path d="M1 3.35609C9.47368 0.323865 19.9737 0.107273 29 3.35609V26V40V61C19.9737 57.7512 9.47368 57.9678 1 61V40V26V3.35609Z" fill="url(#paint0_linear_102_2788)"/>
<path d="M1 3.35609C9.47368 0.323865 19.9737 0.107273 29 3.35609V26V40V61C19.9737 57.7512 9.47368 57.9678 1 61V40V26V3.35609Z" fill="url(#paint1_linear_102_2788)" fill-opacity="0.2"/>
<path d="M1 40C3.66878 39.045 6.53857 38.3693 9.5 37.9932V23.9932C6.53857 24.3693 3.66878 25.045 1 26M29 26C26.2692 25.0171 23.4036 24.3514 20.5 23.9849V37.9849C23.4036 38.3514 26.2692 39.0171 29 40M1 3.35609C9.47368 0.323865 19.9737 0.107273 29 3.35609V61C19.9737 57.7512 9.47368 57.9678 1 61V3.35609Z" stroke="url(#paint2_linear_102_2788)"/>
<path d="M9.5 37.9931V23.9931C6.53857 24.3692 3.66878 25.045 1 26V40C3.66878 39.045 6.53857 38.3692 9.5 37.9931Z" fill="url(#paint3_linear_102_2788)"/>
<path d="M29 26C26.2692 25.0171 23.4036 24.3514 20.5 23.9849V37.9849C23.4036 38.3514 26.2692 39.0171 29 40V26Z" fill="url(#paint4_linear_102_2788)"/>
<defs>
<linearGradient id="paint0_linear_102_2788" x1="33.5581" y1="30.1393" x2="3.81549" y2="28.8482" gradientUnits="userSpaceOnUse">
<stop offset="0.302083" stop-color="#ECEDEE"/>
<stop offset="0.567708" stop-color="#DADEE0"/>
</linearGradient>
<linearGradient id="paint1_linear_102_2788" x1="29" y1="32.291" x2="1.01943" y2="31.5536" gradientUnits="userSpaceOnUse">
<stop offset="0.589227" stop-color="#ABB4BD" stop-opacity="0"/>
<stop offset="1" stop-color="#677582"/>
</linearGradient>
<linearGradient id="paint2_linear_102_2788" x1="-16.3939" y1="17.9328" x2="36.4566" y2="14.4159" gradientUnits="userSpaceOnUse">
<stop stop-color="#AFB1C6"/>
<stop offset="1" stop-color="#DFE0E8"/>
</linearGradient>
<linearGradient id="paint3_linear_102_2788" x1="-2.0625" y1="30.2758" x2="32.0625" y2="30.2758" gradientUnits="userSpaceOnUse">
<stop stop-color="#1F1F1F"/>
<stop offset="0.572948" stop-color="#474747"/>
</linearGradient>
<linearGradient id="paint4_linear_102_2788" x1="-2.0625" y1="30.2758" x2="32.0625" y2="30.2758" gradientUnits="userSpaceOnUse">
<stop stop-color="#1F1F1F"/>
<stop offset="0.572948" stop-color="#474747"/>
</linearGradient>
</defs>
</svg>
