<svg width="34" height="166" viewBox="0 0 34 166" fill="none" xmlns="http://www.w3.org/2000/svg">
<path d="M33 103.356V161L31 165C20.6842 161.751 12.6842 161.968 3 165L1 161V103.356L14.5868 78.4999V64.5L8.573 62V59.5L14.5868 54.5V9.5L16.5 1L18.5 9.5V54.5L24.5 59.5V62L18.5 64.5V78.437L33 103.356Z" fill="url(#paint0_linear_102_2842)"/>
<path d="M33 103.356V161L31 165C20.6842 161.751 12.6842 161.968 3 165L1 161V103.356L14.5868 78.4999V64.5L8.573 62V59.5L14.5868 54.5V9.5L16.5 1L18.5 9.5V54.5L24.5 59.5V62L18.5 64.5V78.437L33 103.356Z" fill="url(#paint1_linear_102_2842)" fill-opacity="0.2"/>
<path d="M31 165C20.6842 161.751 12.6842 161.968 3 165L1 161C10.6842 157.968 22.6842 157.751 33 161L31 165Z" fill="url(#paint2_linear_102_2842)"/>
<path d="M16.5 101.003C11.0903 101.054 5.76486 101.864 1 103.356L14.5868 78.4999V64.5L8.573 62V59.5L14.5868 54.5V9.5L16.5 1L18.5 9.5V54.5L24.5 59.5V62L18.5 64.5V78.437L33 103.356C27.7598 101.706 22.0851 100.95 16.5 101.003Z" fill="url(#paint3_linear_102_2842)"/>
<path d="M1 103.356V161M1 103.356C5.76486 101.864 11.0903 101.054 16.5 101.003C22.0851 100.95 27.7598 101.706 33 103.356M1 103.356L14.5868 78.4999M33 103.356V161M33 103.356L18.5 78.437M1 161C10.6842 157.968 22.6842 157.751 33 161M1 161L3 165C12.6842 161.968 20.6842 161.751 31 165L33 161M14.5868 78.4999C16 77.5 17 77.5 18.5 78.437M14.5868 78.4999V64.5L8.573 62M18.5 78.437V64.5L24.5 62M24.5 62V59.5M24.5 62C18.7129 60.5493 14.5137 60.1575 8.573 62M8.573 62V59.5M8.573 59.5L14.5868 54.5V9.5L16.5 1L18.5 9.5V54.5L24.5 59.5M8.573 59.5C14.5137 57.6575 18.7129 58.0493 24.5 59.5" stroke="url(#paint4_linear_102_2842)"/>
<defs>
<linearGradient id="paint0_linear_102_2842" x1="38.2093" y1="80.6476" x2="4.16486" y2="80.0297" gradientUnits="userSpaceOnUse">
<stop offset="0.302083" stop-color="#ECEDEE"/>
<stop offset="0.567708" stop-color="#DADEE0"/>
</linearGradient>
<linearGradient id="paint1_linear_102_2842" x1="33" y1="86.5288" x2="1.00389" y2="86.1762" gradientUnits="userSpaceOnUse">
<stop offset="0.589227" stop-color="#ABB4BD" stop-opacity="0"/>
<stop offset="1" stop-color="#677582"/>
</linearGradient>
<linearGradient id="paint2_linear_102_2842" x1="-0.896541" y1="93.3596" x2="36.6077" y2="93.9717" gradientUnits="userSpaceOnUse">
<stop offset="0.128571" stop-color="#AB3300"/>
<stop offset="0.426601" stop-color="#D23F00"/>
</linearGradient>
<linearGradient id="paint3_linear_102_2842" x1="-0.896541" y1="93.3596" x2="36.6077" y2="93.9717" gradientUnits="userSpaceOnUse">
<stop offset="0.128571" stop-color="#AB3300"/>
<stop offset="0.426601" stop-color="#D23F00"/>
</linearGradient>
<linearGradient id="paint4_linear_102_2842" x1="-18.8788" y1="117.933" x2="41.4405" y2="113.345" gradientUnits="userSpaceOnUse">
<stop stop-color="#B43601"/>
<stop offset="1" stop-color="#B43601" stop-opacity="0.14"/>
</linearGradient>
</defs>
</svg>
