<svg width="20" height="20" viewBox="0 0 20 20" fill="none" xmlns="http://www.w3.org/2000/svg">
<path d="M11.3444 15.9778C8.2 14.3667 5.62222 11.8 4.02222 8.65556L6.77371 6.6036C7.09322 6.36532 7.24072 5.96006 7.14912 5.57216L6.0152 0.770184C5.90862 0.318844 5.50572 0 5.04197 0H1.11111C0.5 0 0 0.5 0 1.11111C0 11.5444 8.45556 20 18.8889 20C19.5 20 20 19.5 20 18.8889V14.9567C20 14.4935 19.682 14.091 19.2315 13.9838L14.4299 12.8414C14.041 12.7489 13.6343 12.8969 13.3958 13.2177L11.3444 15.9778Z" fill="white" fill-opacity="0.35"/>
</svg>
