<svg width="10" height="20" viewBox="0 0 10 20" fill="none" xmlns="http://www.w3.org/2000/svg">
<path d="M7.26785 2.4187C7.26785 3.75451 6.18496 4.8374 4.84914 4.8374C3.51333 4.8374 2.43044 3.75451 2.43044 2.4187C2.43044 1.08289 3.51333 0 4.84914 0C6.18496 0 7.26785 1.08289 7.26785 2.4187Z" fill="#30C951" fill-opacity="0.8"/>
<path d="M3.37356 20C2.82127 20 2.37356 19.5523 2.37356 19V10.0204L1.77999 11.8689C1.63965 12.306 1.17157 12.5465 0.73451 12.4062C0.297448 12.2659 0.0569068 11.7978 0.197246 11.3607L1.89741 6.06588C2.09582 5.78971 2.71245 5.2495 3.59167 5.29808L6.40808 5.29808C7.2873 5.2495 7.90393 5.78971 8.10234 6.06588L9.8025 11.3607C9.94284 11.7978 9.7023 12.2659 9.26524 12.4062C8.82818 12.5465 8.3601 12.306 8.21976 11.8689L7.63528 10.0487V19C7.63528 19.5523 7.18756 20 6.63528 20C6.08299 20 5.63528 19.5523 5.63528 19V13H4.37356V19C4.37356 19.5523 3.92584 20 3.37356 20Z" fill="#30C951" fill-opacity="0.8"/>
</svg>
