<svg width="103" height="249" viewBox="0 0 103 249" fill="none" xmlns="http://www.w3.org/2000/svg">
<path d="M42 15.3561C51.9868 12.3239 64.3618 12.1073 75 15.3561V225H42V15.3561Z" fill="#E5E8E9" stroke="url(#paint0_linear_28_1759)"/>
<g filter="url(#filter0_d_28_1759)">
<path d="M50.0064 225.223C40.9362 229.57 23.3418 228.643 15.8777 223.632C15.3117 223.252 15.0462 222.576 15.1223 221.899C15.6262 217.417 16.1422 212.776 16.6694 208.008C18.234 193.859 19.8979 178.595 21.6404 163.073C26.9489 115.789 32.9868 66.1186 39.1685 38.3274C40.7702 31.1263 42.3816 25.3942 43.9925 21.5531C44.6308 20.0312 46.5211 20.2608 46.877 21.8724C47.7968 26.038 48.5692 31.677 49.2123 38.5414C51.8145 66.3176 52.2985 114.159 51.8536 165.645C51.7269 180.31 51.5249 195.27 51.2749 210.147C51.1997 214.629 51.12 219.102 51.0368 223.558C51.0236 224.264 50.6437 224.918 50.0064 225.223Z" fill="url(#paint1_linear_28_1759)"/>
<path d="M50.0064 225.223C40.9362 229.57 23.3418 228.643 15.8777 223.632C15.3117 223.252 15.0462 222.576 15.1223 221.899C15.6262 217.417 16.1422 212.776 16.6694 208.008C18.234 193.859 19.8979 178.595 21.6404 163.073C26.9489 115.789 32.9868 66.1186 39.1685 38.3274C40.7702 31.1263 42.3816 25.3942 43.9925 21.5531C44.6308 20.0312 46.5211 20.2608 46.877 21.8724C47.7968 26.038 48.5692 31.677 49.2123 38.5414C51.8145 66.3176 52.2985 114.159 51.8536 165.645C51.7269 180.31 51.5249 195.27 51.2749 210.147C51.1997 214.629 51.12 219.102 51.0368 223.558C51.0236 224.264 50.6437 224.918 50.0064 225.223Z" fill="url(#paint2_linear_28_1759)" fill-opacity="0.2"/>
<path d="M39.1685 38.3274C40.7702 31.1263 42.3816 25.3942 43.9925 21.5531C44.6308 20.0312 46.5211 20.2608 46.877 21.8724C47.7968 26.038 48.5692 31.677 49.2123 38.5414M39.1685 38.3274C41.9577 37.4715 46.0552 37.6855 49.2123 38.5414M39.1685 38.3274C32.9868 66.1186 26.9489 115.789 21.6404 163.073M49.2123 38.5414C52.5557 74.2294 52.4023 143.04 51.2749 210.147M21.6404 163.073C28.8023 166.711 41.095 167.139 51.8781 165.641M21.6404 163.073C19.8979 178.595 18.234 193.859 16.6694 208.008M16.6694 208.008C16.1422 212.776 15.6262 217.417 15.1223 221.899C15.0462 222.576 15.3117 223.252 15.8777 223.632C23.3418 228.643 40.9362 229.57 50.0064 225.223C50.6437 224.918 51.0236 224.264 51.0368 223.558C51.12 219.102 51.1997 214.629 51.2749 210.147M16.6694 208.008C29.4111 212.009 36.942 212.617 51.2749 210.147M16.2666 211.645C29.0082 215.647 36.8799 216.254 51.2129 213.785" stroke="url(#paint3_linear_28_1759)"/>
</g>
<path d="M66.9936 225.223C76.0638 229.57 93.6582 228.643 101.122 223.632C101.688 223.252 101.954 222.576 101.878 221.899C101.374 217.417 100.858 212.776 100.331 208.008C98.766 193.859 97.1021 178.595 95.3596 163.073C90.0511 115.789 84.0132 66.1186 77.8315 38.3274C76.2298 31.1263 74.6184 25.3942 73.0075 21.5531C72.3692 20.0312 70.4789 20.2608 70.123 21.8724C69.2032 26.038 68.4308 31.677 67.7877 38.5414C65.1855 66.3176 64.7015 114.159 65.1464 165.645C65.2731 180.31 65.4751 195.27 65.7251 210.147C65.8003 214.629 65.88 219.102 65.9632 223.558C65.9764 224.264 66.3563 224.918 66.9936 225.223Z" fill="url(#paint4_linear_28_1759)"/>
<path d="M66.9936 225.223C76.0638 229.57 93.6582 228.643 101.122 223.632C101.688 223.252 101.954 222.576 101.878 221.899C101.374 217.417 100.858 212.776 100.331 208.008C98.766 193.859 97.1021 178.595 95.3596 163.073C90.0511 115.789 84.0132 66.1186 77.8315 38.3274C76.2298 31.1263 74.6184 25.3942 73.0075 21.5531C72.3692 20.0312 70.4789 20.2608 70.123 21.8724C69.2032 26.038 68.4308 31.677 67.7877 38.5414C65.1855 66.3176 64.7015 114.159 65.1464 165.645C65.2731 180.31 65.4751 195.27 65.7251 210.147C65.8003 214.629 65.88 219.102 65.9632 223.558C65.9764 224.264 66.3563 224.918 66.9936 225.223Z" fill="url(#paint5_linear_28_1759)" fill-opacity="0.2"/>
<path d="M77.8315 38.3274C76.2298 31.1263 74.6184 25.3942 73.0075 21.5531C72.3692 20.0312 70.4789 20.2608 70.123 21.8724C69.2032 26.038 68.4308 31.677 67.7877 38.5414M77.8315 38.3274C75.0423 37.4715 70.9448 37.6855 67.7877 38.5414M77.8315 38.3274C84.0132 66.1186 90.0511 115.789 95.3596 163.073M67.7877 38.5414C64.4443 74.2294 64.5977 143.04 65.7251 210.147M95.3596 163.073C88.1977 166.711 75.905 167.139 65.1219 165.641M95.3596 163.073C97.1021 178.595 98.766 193.859 100.331 208.008M100.331 208.008C100.858 212.776 101.374 217.417 101.878 221.899C101.954 222.576 101.688 223.252 101.122 223.632C93.6582 228.643 76.0638 229.57 66.9936 225.223C66.3563 224.918 65.9764 224.264 65.9632 223.558C65.88 219.102 65.8003 214.629 65.7251 210.147M100.331 208.008C87.5889 212.009 80.058 212.617 65.7251 210.147M100.733 211.645C87.9918 215.647 80.1201 216.254 65.7871 213.785" stroke="url(#paint6_linear_28_1759)"/>
<defs>
<filter id="filter0_d_28_1759" x="0.609619" y="0.0285645" width="77.8904" height="248.471" filterUnits="userSpaceOnUse" color-interpolation-filters="sRGB">
<feFlood flood-opacity="0" result="BackgroundImageFix"/>
<feColorMatrix in="SourceAlpha" type="matrix" values="0 0 0 0 0 0 0 0 0 0 0 0 0 0 0 0 0 0 127 0" result="hardAlpha"/>
<feOffset dx="6"/>
<feGaussianBlur stdDeviation="10"/>
<feComposite in2="hardAlpha" operator="out"/>
<feColorMatrix type="matrix" values="0 0 0 0 0.463368 0 0 0 0 0.505344 0 0 0 0 0.654167 0 0 0 0.32 0"/>
<feBlend mode="normal" in2="BackgroundImageFix" result="effect1_dropShadow_28_1759"/>
<feBlend mode="normal" in="SourceGraphic" in2="effect1_dropShadow_28_1759" result="shape"/>
</filter>
<linearGradient id="paint0_linear_28_1759" x1="21.5" y1="54.5" x2="84" y2="52.5" gradientUnits="userSpaceOnUse">
<stop stop-color="#AFB1C6"/>
<stop offset="1" stop-color="#DFE0E8"/>
</linearGradient>
<linearGradient id="paint1_linear_28_1759" x1="58.0233" y1="119.988" x2="18.4418" y2="117.622" gradientUnits="userSpaceOnUse">
<stop offset="0.283407" stop-color="#ECEDEE"/>
<stop offset="0.607942" stop-color="#DADEE0"/>
</linearGradient>
<linearGradient id="paint2_linear_28_1759" x1="52" y1="127.518" x2="22.9592" y2="124.938" gradientUnits="userSpaceOnUse">
<stop offset="0.466426" stop-color="#ABB4BD" stop-opacity="0"/>
<stop offset="0.831205" stop-color="#677582"/>
</linearGradient>
<linearGradient id="paint3_linear_28_1759" x1="20.593" y1="105.141" x2="55.657" y2="107.077" gradientUnits="userSpaceOnUse">
<stop stop-color="#9FA3C0"/>
<stop offset="1" stop-color="#F2F2F2"/>
</linearGradient>
<linearGradient id="paint4_linear_28_1759" x1="58.9767" y1="119.988" x2="98.343" y2="119.342" gradientUnits="userSpaceOnUse">
<stop offset="0.244792" stop-color="#DADEE0"/>
<stop offset="0.547005" stop-color="#ECEDEE"/>
</linearGradient>
<linearGradient id="paint5_linear_28_1759" x1="65" y1="127.518" x2="103.506" y2="127.088" gradientUnits="userSpaceOnUse">
<stop stop-color="#677582"/>
<stop offset="0.216632" stop-color="#ABB4BD" stop-opacity="0"/>
</linearGradient>
<linearGradient id="paint6_linear_28_1759" x1="61.9884" y1="130.1" x2="92.75" y2="131.821" gradientUnits="userSpaceOnUse">
<stop stop-color="#9FA3C0"/>
<stop offset="1" stop-color="#F2F2F2"/>
</linearGradient>
</defs>
</svg>
